<svg width="72" height="45" viewBox="0 0 72 45" fill="none" xmlns="http://www.w3.org/2000/svg">
<rect width="72" height="45" fill="white"/>
<path d="M46.5382 30.0412C46.1576 30.9582 45.6874 31.8326 45.1349 32.6508C44.3969 33.7404 43.7908 34.4932 43.3262 34.9123C42.6047 35.597 41.8295 35.9493 41.0008 35.9692C40.407 35.9692 39.6896 35.7945 38.8539 35.4393C38.0156 35.0856 37.2459 34.9123 36.5408 34.9123C35.8028 34.9123 35.0111 35.0856 34.1631 35.4393C33.3165 35.7945 32.632 35.9806 32.1084 35.9976C31.3154 36.0331 30.5223 35.6723 29.7321 34.9123C29.2277 34.4577 28.5968 33.6764 27.8395 32.5712C27.0286 31.3936 26.362 30.0228 25.8398 28.4644C25.2804 26.7782 25 25.1474 25 23.5678C25 21.7594 25.378 20.1982 26.1353 18.8913C26.708 17.8649 27.5269 17.0083 28.513 16.4039C29.4853 15.8011 30.5953 15.4766 31.7291 15.4635C32.3613 15.4635 33.19 15.6652 34.2167 16.063C35.2434 16.4607 35.9031 16.6625 36.1904 16.6625C36.4075 16.6625 37.1373 16.4252 38.3798 15.955C39.5521 15.5189 40.5417 15.3385 41.3526 15.4095C43.5516 15.5928 45.2023 16.4877 46.3004 18.1015C44.335 19.3331 43.3633 21.0562 43.3826 23.268C43.3991 24.9912 44.0052 26.4245 45.1927 27.5624C45.7176 28.0816 46.3302 28.4971 47 28.7883C46.8543 29.2244 46.7004 29.6406 46.5382 30.0412V30.0412ZM41.4983 9.54123C41.4983 10.8908 41.02 12.1522 40.0703 13.3185C38.9213 14.7049 37.5331 15.5076 36.0282 15.3811C36.0085 15.2114 35.9989 15.0406 35.9993 14.8697C35.9993 13.5728 36.5436 12.1863 37.5153 11.0513C37.9991 10.4774 38.6148 9.99865 39.3611 9.61794C40.106 9.24291 40.8097 9.03551 41.4722 9C41.49 9.18183 41.4983 9.36224 41.4983 9.54123V9.54123Z" fill="#37393B"/>
</svg>
