<svg width="72" height="45" viewBox="0 0 72 45" fill="none" xmlns="http://www.w3.org/2000/svg">
<rect width="72" height="45" fill="white"/>
<path d="M49 22.5774C49 15.6292 43.1768 10 36 10C28.8183 10 23 15.6292 23 22.5774C23 28.8536 27.7523 34.0575 33.9688 35V26.2139H30.6676V22.5782H33.9688V19.8057C33.9688 16.6542 35.9066 14.9138 38.8771 14.9138C40.2998 14.9138 41.7891 15.1591 41.7891 15.1591V18.2539H40.147C38.535 18.2539 38.0312 19.2248 38.0312 20.2192V22.5774H41.6363L41.057 26.2131H38.0312V34.9992C44.2428 34.0567 49 28.8528 49 22.5766V22.5774Z" fill="#699BF7"/>
</svg>
