<svg width="72" height="45" viewBox="0 0 72 45" fill="none" xmlns="http://www.w3.org/2000/svg">
<rect width="72" height="45" fill="white"/>
<path d="M45.9821 20.4863H45.1287V20.4423H35.5941V24.6799H41.5813C40.7078 27.1468 38.3607 28.9176 35.5941 28.9176C32.0837 28.9176 29.2376 26.0715 29.2376 22.5611C29.2376 19.0508 32.0837 16.2047 35.5941 16.2047C37.2144 16.2047 38.6886 16.8159 39.811 17.8144L42.8076 14.8179C40.9155 13.0545 38.3846 11.967 35.5941 11.967C29.7435 11.967 25 16.7105 25 22.5611C25 28.4117 29.7435 33.1552 35.5941 33.1552C41.4446 33.1552 46.1881 28.4117 46.1881 22.5611C46.1881 21.8508 46.115 21.1574 45.9821 20.4863Z" fill="#FFC107"/>
<path d="M26.2217 17.6301L29.7024 20.1827C30.6442 17.851 32.9251 16.2047 35.5943 16.2047C37.2146 16.2047 38.6888 16.8159 39.8112 17.8144L42.8078 14.8179C40.9157 13.0545 38.3847 11.967 35.5943 11.967C31.5251 11.967 27.9962 14.2644 26.2217 17.6301Z" fill="#FF3D00"/>
<path d="M35.5945 33.1553C38.3309 33.1553 40.8173 32.108 42.6973 30.4051L39.4184 27.6305C38.319 28.4665 36.9756 28.9187 35.5945 28.9176C32.8389 28.9176 30.4992 27.1606 29.6178 24.7086L26.1631 27.3704C27.9164 30.8013 31.4771 33.1553 35.5945 33.1553Z" fill="#4CAF50"/>
<path d="M45.9827 20.4862H45.1294V20.4423H35.5947V24.6799H41.582C41.1641 25.8539 40.4115 26.8798 39.4171 27.6309L39.4187 27.6298L42.6975 30.4044C42.4655 30.6152 46.1888 27.8581 46.1888 22.5611C46.1888 21.8507 46.1157 21.1574 45.9827 20.4862Z" fill="#1976D2"/>
</svg>
